<svg width="24" height="24" viewBox="0 0 24 24" fill="none" xmlns="http://www.w3.org/2000/svg">
<path d="M19.7956 24H4.20438C1.92701 24 0 22.0588 0 19.7647V4.23529C0 1.94118 1.92701 0 4.20438 0H19.7956C22.073 0 24 1.94118 24 4.23529V19.9412C24 22.2353 22.073 24 19.7956 24Z" fill="#56749F"/>
<path d="M18.747 3H9.98788C8.58642 3 7.53532 4.05882 7.53532 5.29412V7.58824H5.43313C4.20686 7.58824 3.15576 8.64706 3.15576 9.88235V18.5294C3.15576 19.7647 4.20686 20.8235 5.43313 20.8235H14.1923C15.4185 20.8235 16.4696 19.7647 16.4696 18.5294V16.2353H18.5718C19.7981 16.2353 20.8492 15.1765 20.8492 13.9412V5.29412C21.0244 4.05882 19.9733 3 18.747 3ZM18.5718 12.8824C18.5718 13.5882 18.0463 14.1176 17.3455 14.1176H14.1923V17.6471C14.1923 18.3529 13.6667 18.8824 12.966 18.8824H6.83459C6.13386 18.8824 5.60832 18.3529 5.60832 17.6471V11.1176C5.60832 10.4118 6.13386 9.88235 6.83459 9.88235H9.98788V6.35294C9.98788 5.64706 10.5134 5.11765 11.2142 5.11765H17.3455C18.0463 5.11765 18.5718 5.64706 18.5718 6.35294V12.8824Z" fill="#9FEA6C"/>
<path d="M16.4676 6.88123H12.6135C12.088 6.88123 11.7376 7.41064 11.7376 7.76358V11.4695C11.7376 11.4695 11.7376 11.4695 11.5624 11.4695H7.70843C7.18288 11.4695 6.83252 11.8224 6.83252 12.3518V16.2342C6.83252 16.7636 7.18288 17.1165 7.70843 17.1165H11.5624C12.088 17.1165 12.4384 16.7636 12.4384 16.2342V12.5283C12.4384 12.5283 12.4384 12.5283 12.6135 12.5283H16.4676C16.9931 12.5283 17.3435 12.1753 17.3435 11.6459V7.76358C17.1683 7.41064 16.8179 6.88123 16.4676 6.88123Z" fill="#FFEE6B"/>
</svg>
